<?xml version="1.0" encoding="utf-8"?>
<svg xmlns="http://www.w3.org/2000/svg" viewBox="0 0 50 35" width="50px" height="35px"><g transform="matrix(2.457673, 0, 0, 2.457673, 4.428321, -4.168372)" style="" id="object-0"><path style="color: rgb(0, 0, 0); fill: rgb(255, 192, 0);" d="m 8.4646014,2.6955846 a 0.85947485,0.85947485 0 0 0 -0.739376,0.418783 l -2.860994,4.818117 -3.460215,-2.839173 A 0.85947485,0.85947485 0 0 0 0.02093841,5.9468266 L 1.7397154,13.568868 a 0.85947485,0.85947485 0 0 0 0.837569,0.66888 H 14.351919 a 0.85947485,0.85947485 0 0 0 0.840086,-0.66888 l 1.719617,-7.6220414 a 0.85947485,0.85947485 0 0 0 -1.386435,-0.853515 l -3.45686,2.839173 -2.8643486,-4.818117 a 0.85947485,0.85947485 0 0 0 -0.739377,-0.418783 z" stroke-width="1" stroke-linecap="round" stroke-linejoin="round"/></g></svg>